<svg viewBox="0 0 512 512" xmlns="http://www.w3.org/2000/svg"><style>#tile{fill:#0158ad}@media (prefers-color-scheme:dark){#tile{fill:#3394f4}}#corners{fill:#fff}@media (prefers-color-scheme:dark){#corners{fill:#000}}</style><path id="tile" d="M352.71 512H159.29C71.467 512 0 440.532 0 352.71V159.29C0 71.467 71.467 0 159.289 0H352.71c87.822 0 159.288 71.467 159.288 159.289V352.71c0 87.822-71.466 159.288-159.288 159.288V512Z"/><path id="corners" d="M184.889 327.11v-53.76c0-48.781-39.68-88.461-88.462-88.461h-53.76v63.146h53.76c13.937 0 25.315 11.378 25.315 25.316v53.76h63.289l-.142-.001Zm142.222 0v-53.76c0-48.781-39.68-88.461-88.462-88.461h-53.76v63.146h53.76c13.937 0 25.315 11.378 25.315 25.316v53.76h63.289l-.142-.001Zm142.222 0v-53.76c0-48.781-39.68-88.461-88.462-88.461h-53.76v63.146h53.76c13.937 0 25.315 11.378 25.315 25.316v53.76h63.289l-.142-.001Z"/></svg>
