<svg xmlns="http://www.w3.org/2000/svg" viewBox="0 0 600 326"><path fill="#0158ad" d="M189.253 189.27v-71.496C189.253 52.762 136.508.017 71.496.017H.001v84.112h71.495c18.575 0 33.645 15.07 33.645 33.645v71.495h84.112Zm189.253 0v-71.496C378.506 52.762 325.761.017 260.75.017h-71.496v84.112h71.496c18.575 0 33.645 15.07 33.645 33.645v71.495h84.112Zm189.253 0v-71.496C567.759 52.762 515.013.017 450.002.017h-71.496v84.112h71.496c18.574 0 33.645 15.07 33.645 33.645v71.495h84.112ZM26.461 236.232l22.255 54.498h1.051l22.43-54.498h26.285v88.143H77.805v-54.147h-.701L55.9 323.849H42.583l-21.029-53.972h-.7v54.498H0v-88.143h26.46Zm79.206 55.374c0-20.502 12.792-34.17 32.769-34.17 19.976 0 32.067 11.915 32.067 33.644v5.257H126.52v.526c0 8.06 4.906 13.493 13.142 13.493s9.813-2.278 11.39-6.834l19.276.526c-2.453 12.967-13.843 21.378-31.191 21.378-17.349 0-33.47-12.792-33.47-33.995v.175Zm45.21-7.36c0-6.834-5.082-11.565-11.916-11.565-6.834 0-12.09 4.906-12.441 11.565h24.532-.175Zm25.409 21.729c0-14.544 11.215-19.626 24.533-20.677 11.215-1.052 15.596-1.928 15.596-5.958 0-4.732-3.33-7.185-8.412-7.185-5.081 0-9.112 2.629-9.988 6.834l-19.45-.7c1.751-12.092 11.74-21.029 29.438-21.029 17.7 0 29.265 8.061 29.265 22.08v44.86h-19.802v-9.288h-.526c-3.68 6.834-9.988 10.339-19.1 10.339-9.112 0-21.73-6.308-21.73-19.451l.176.175Zm40.304-5.082v-6.308c-2.278 1.227-7.185 2.103-11.04 2.629-5.958.876-9.287 3.504-9.287 7.71 0 4.205 3.504 6.659 8.236 6.659 4.731 0 12.09-4.381 12.09-10.865v.175Zm68.341-21.903c-.526-4.206-4.556-7.185-9.988-7.185-5.432 0-8.762 2.102-8.762 5.432 0 2.453 1.752 4.556 7.36 5.607l12.792 2.454c13.143 2.453 19.451 8.236 19.626 17.874 0 13.668-12.967 22.43-30.666 22.43-17.698 0-30.14-8.412-31.542-21.38l20.853-.525c.876 4.732 4.907 7.36 10.865 7.36s9.112-2.278 9.112-5.432c0-2.98-2.629-4.732-8.061-5.783l-11.565-2.278c-13.143-2.453-19.627-8.937-19.627-19.1 0-13.318 11.39-21.029 29.264-21.029s28.564 7.886 29.79 21.029l-19.276.525h-.175Zm70.269-20.678h21.028v66.063h-19.977v-12.267h-.7c-2.98 8.061-10.34 13.143-20.152 13.143-9.814 0-22.606-9.813-22.78-24.883v-42.056h21.027v38.025c0 7.185 4.03 11.566 10.514 11.566 6.484 0 11.215-4.381 11.215-11.916v-37.5l-.175-.175Zm30.841 0h20.503v12.09h.7c2.454-8.76 8.237-12.967 15.421-12.967 7.185 0 4.206.35 5.958.701v18.225c-2.103-.701-5.783-1.052-8.236-1.052-7.535 0-13.142 5.257-13.142 13.143v35.923h-21.029v-66.063h-.175Zm44.685 33.294c0-20.502 12.792-34.17 32.769-34.17 19.976 0 32.067 11.915 32.067 33.644v5.257H451.58v.526c0 8.06 4.906 13.493 13.142 13.493s9.813-2.278 11.39-6.834l19.276.526c-2.453 12.967-13.843 21.378-31.191 21.378-17.349 0-33.47-12.792-33.47-33.995v.175Zm45.21-7.36c0-6.834-5.082-11.565-11.916-11.565-6.834 0-12.09 4.906-12.441 11.565h24.532-.175Zm25.584 7.184c0-23.305 12.442-33.995 26.286-33.995 13.843 0 16.121 6.134 18.75 12.092h.35v-33.295h21.028v88.143h-20.853v-10.69h-.7c-2.63 6.134-8.587 11.741-18.575 11.741-14.545 0-26.46-11.39-26.46-33.995h.174Zm45.912-.174c0-10.865-4.556-17.524-12.091-17.524-7.535 0-12.092 6.834-12.092 17.524 0 10.689 4.381 17.523 12.092 17.523 7.71 0 12.09-6.834 12.09-17.523Zm30.14 23.131c0-6.134 4.907-11.04 11.215-11.04s11.04 4.906 11.215 11.04c0 6.133-5.257 11.214-11.215 11.214s-11.215-4.906-11.215-11.214Z"/></svg>
